<svg width="296" height="179" viewBox="0 0 296 179" fill="none" xmlns="http://www.w3.org/2000/svg">
<rect width="296" height="179" fill="#F4F4F4"/>
<g clip-path="url(#clip0_16_485)">
<path d="M202.881 98.9398C202.881 128.904 178.59 147 148.626 147C118.66 147 94.3691 122.709 94.3691 92.7437C94.3691 62.7794 119.419 44.3571 149.384 44.3571C179.349 44.3571 202.881 68.9746 202.881 98.9398Z" fill="#DC3E22"/>
<path d="M172.185 68.2439C169.549 65.5598 165.284 63.0639 162.108 62.3341C163.853 60.7865 164.205 60.7355 166.391 59.6522C171.993 56.8793 180.291 56.624 180.291 56.624C180.291 56.624 170.497 51.5621 163.336 51.8797C161.513 51.9599 159.59 52.604 157.735 53.5166C158.781 52.0403 159.772 50.5725 160.406 49.4698C162.344 46.0981 164.382 41.8506 164.382 41.8506C164.382 41.8506 156.873 42.2515 153.39 46.42C152.068 48.0036 151.069 50.0155 150.338 51.9029C149.041 50.4121 147.608 49.0845 146.176 48.0481C139.013 42.8645 127.568 43.986 127.568 43.986C127.568 43.986 136.214 48.8902 140.104 53.7826C141.622 55.6932 143.164 56.5767 144.085 58.7189C140.9 58.0293 133.714 58.265 130.187 59.5729C121.122 62.9348 117.216 76.4617 117.216 76.4617C117.216 76.4617 126.062 70.3648 138.097 66.0876C140.743 65.1475 143.541 64.8983 145.979 64.9411C144.872 66.6654 143.663 68.9045 142.748 71.5446C140.522 77.9724 143.463 93.2701 143.463 93.2701C143.463 93.2701 149.908 84.2234 152.534 76.8951C153.882 73.1335 154.216 69.3568 154.223 66.5698C156.613 67.6302 159.428 69.1793 161.532 70.5193C172.304 77.3826 177.458 89.9127 177.458 89.9127C177.458 89.9127 178.959 75.1422 172.185 68.2439Z" fill="#899441"/>
<path d="M149.939 61.6396C149.905 61.6396 149.871 61.6388 149.837 61.6379C147.707 61.5826 146.025 59.8121 146.076 57.6835C146.081 57.4993 146.267 44.5386 139.067 38.9032C137.388 37.5889 137.091 35.162 138.405 33.4818C139.721 31.8025 142.147 31.506 143.827 32.8212C154.123 40.8782 153.816 57.1887 153.798 57.8792C153.743 59.9761 152.025 61.6396 149.939 61.6396Z" fill="#A8B64F"/>
<circle cx="132.5" cy="96.5" r="2.5" fill="black"/>
<g filter="url(#filter0_f_16_485)">
<circle cx="120.5" cy="107.5" r="5.5" fill="#EA8979"/>
</g>
<g filter="url(#filter1_f_16_485)">
<circle cx="176.5" cy="107.5" r="5.5" fill="#EA8979"/>
</g>
<circle cx="164.5" cy="96.5" r="2.5" fill="black"/>
<path d="M137 110C141 114 155.5 115 159.5 110" stroke="black"/>
</g>
<defs>
<filter id="filter0_f_16_485" x="111" y="98" width="19" height="19" filterUnits="userSpaceOnUse" color-interpolation-filters="sRGB">
<feFlood flood-opacity="0" result="BackgroundImageFix"/>
<feBlend mode="normal" in="SourceGraphic" in2="BackgroundImageFix" result="shape"/>
<feGaussianBlur stdDeviation="2" result="effect1_foregroundBlur_16_485"/>
</filter>
<filter id="filter1_f_16_485" x="167" y="98" width="19" height="19" filterUnits="userSpaceOnUse" color-interpolation-filters="sRGB">
<feFlood flood-opacity="0" result="BackgroundImageFix"/>
<feBlend mode="normal" in="SourceGraphic" in2="BackgroundImageFix" result="shape"/>
<feGaussianBlur stdDeviation="2" result="effect1_foregroundBlur_16_485"/>
</filter>
<clipPath id="clip0_16_485">
<rect width="115" height="115" fill="white" transform="translate(91 32)"/>
</clipPath>
</defs>
</svg>
